<svg id="Layer_1" data-name="Layer 1" xmlns="http://www.w3.org/2000/svg" viewBox="0 0 512 512"><defs><style>.cls-1{fill:#8cbf80}.cls-2{fill:#7a9c71}.cls-3{fill:#b4cb80}.cls-4{fill:#58b25d}.cls-5{fill:#77b94e}.cls-6{fill:#b3cb04}</style></defs><title>social</title><path class="cls-1" d="M300.32 240.21h2a5.13 5.13 0 0 0 3.81-1.27c1.62-1.53 2.76-2.47 5.58-2.47h-13.15M215.91 240.68l.73-.27a5.13 5.13 0 0 0 3.81-1.27c1.62-1.53 2.76-2.47 5.58-2.47h-11.56M248.37 260.92h-24.32a1.72 1.72 0 0 0-1.26.53 1.82 1.82 0 0 0 0 2.57 1.72 1.72 0 0 0 1.26.53h3.58a.38.38 0 0 1 .34.17.37.37 0 0 1 .06.34q-1.45 5-2.35 7.49a1.74 1.74 0 0 0 .14 1.4 1.47 1.47 0 0 0 1.15.78 2.1 2.1 0 0 0 1.57-.28 2.34 2.34 0 0 0 1-1.23 3.19 3.19 0 0 0 .17-.56.4.4 0 0 1 .39-.28h12.52a.54.54 0 0 1 .39.17.39.39 0 0 1 .11.39q-1.06 7.88-2.68 9.39a3.39 3.39 0 0 1-2.18.5q-2.07 0-4.75-.11a1 1 0 0 0-1 .48 1.38 1.38 0 0 0-.17 1.15 3.43 3.43 0 0 0 .89 1.43 2 2 0 0 0 1.45.59q1.4.06 2.52.06 1.51 0 2.57-.06a6.22 6.22 0 0 0 4-1.4 8.4 8.4 0 0 0 1.9-3.63 55 55 0 0 0 1.51-7.6 4.16 4.16 0 0 0 .06-.67 4.09 4.09 0 0 0-1.06-2.74 4.31 4.31 0 0 0-3.3-1.45h-11.39a.43.43 0 0 1-.31-.14.36.36 0 0 1-.08-.36q.56-1.79 1-3.3a.69.69 0 0 1 .73-.5h15.54a1.72 1.72 0 0 0 1.26-.53 1.82 1.82 0 0 0 0-2.57 1.72 1.72 0 0 0-1.26-.56zM277.11 266.94a2 2 0 0 0-1.51.64 2.14 2.14 0 0 0-.61 1.54v1.17a15.46 15.46 0 0 1-.31 3.19 14.65 14.65 0 0 1-1.15 3.21 10.45 10.45 0 0 1-2.74 3.38A19.87 19.87 0 0 1 266 283a1.45 1.45 0 0 0-.87 1.12 1.51 1.51 0 0 0 .36 1.34 3 3 0 0 0 1.57 1 2.65 2.65 0 0 0 .73.11 3 3 0 0 0 1.12-.22 22.22 22.22 0 0 0 4.56-2.91 17.94 17.94 0 0 0 3-3.13 13 13 0 0 0 1.73-3.35 15.68 15.68 0 0 0 .81-3.3 27.92 27.92 0 0 0 .17-3.19v-1.34a2.15 2.15 0 0 0-.61-1.54 2 2 0 0 0-1.46-.65z"/><path class="cls-1" d="M310.59 269.51a1.25 1.25 0 0 0-.89-1 43.58 43.58 0 0 1-8.44-3.69 32.14 32.14 0 0 1-6.88-5.14.3.3 0 0 1 0-.25.22.22 0 0 1 .22-.14h5.76a4.87 4.87 0 0 0 4.86-4.86v-13.09a4.87 4.87 0 0 0-4.86-4.86h-29.29a4.87 4.87 0 0 0-4.86 4.86v13.08a4.87 4.87 0 0 0 4.86 4.86h6a.24.24 0 0 1 .2.14.19.19 0 0 1 0 .25 35.89 35.89 0 0 1-6.93 5.23 46.86 46.86 0 0 1-8.33 3.88 1.51 1.51 0 0 0-1 1 1.84 1.84 0 0 0-.06.45 1.23 1.23 0 0 0 .39.89 3.38 3.38 0 0 0 1.57 1.12 3 3 0 0 0 .84.11 3.17 3.17 0 0 0 1-.17 52.67 52.67 0 0 0 9.84-5.37 37.2 37.2 0 0 0 7.83-7.1 1.06 1.06 0 0 1 .89-.45h5.14a1.22 1.22 0 0 1 1 .45 39.08 39.08 0 0 0 7.49 7 .13.13 0 0 1 0 .14.1.1 0 0 1-.08.08 3.82 3.82 0 0 0-3.8 3.8v13.86a2.18 2.18 0 0 0 4.36 0v-17a.31.31 0 0 1 .17-.31.22.22 0 0 1 .28 0 47.57 47.57 0 0 0 9.06 4.7 2.62 2.62 0 0 0 1.84 0 3.25 3.25 0 0 0 1.57-1.17 1.56 1.56 0 0 0 .34-1 1.68 1.68 0 0 0-.09-.3zm-23.22-27.85a1.39 1.39 0 0 1 1.42-1.36h10.36a1.39 1.39 0 0 1 1.42 1.36v3.13a1.39 1.39 0 0 1-1.42 1.36h-10.36a1.39 1.39 0 0 1-1.42-1.36v-3.13zM283.7 254a1.4 1.4 0 0 1-1.45 1.36h-10.56a1.4 1.4 0 0 1-1.45-1.36v-3.13a1.4 1.4 0 0 1 1.45-1.36h10.56a1.4 1.4 0 0 1 1.45 1.36V254zm0-9.25a1.4 1.4 0 0 1-1.45 1.36h-10.56a1.4 1.4 0 0 1-1.45-1.36v-3.13a1.4 1.4 0 0 1 1.45-1.36h10.56a1.4 1.4 0 0 1 1.45 1.36v3.13zm5.09 10.61a1.39 1.39 0 0 1-1.42-1.36v-3.13a1.39 1.39 0 0 1 1.42-1.36h10.36a1.39 1.39 0 0 1 1.42 1.36V254a1.39 1.39 0 0 1-1.42 1.36h-10.36zM242.44 244.71a.28.28 0 0 1 0-.34.33.33 0 0 1 .28-.17h7a1.91 1.91 0 0 0 1.9-1.9 1.74 1.74 0 0 0-.56-1.31 1.88 1.88 0 0 0-1.34-.53h-13.43a.4.4 0 0 1-.31-.17.33.33 0 0 1 0-.39q.5-1.62.89-3.3a1.68 1.68 0 0 0-.28-1.51 1.93 1.93 0 0 0-1.34-.78H235a2.23 2.23 0 0 0-1.34.45 2.1 2.1 0 0 0-.89 1.4 32 32 0 0 1-1.06 3.75.74.74 0 0 1-.78.56h-8a1.88 1.88 0 0 0-1.34.53 1.74 1.74 0 0 0-.56 1.31 1.91 1.91 0 0 0 1.9 1.9h6.37a.33.33 0 0 1 .28.17.28.28 0 0 1 0 .34 29.62 29.62 0 0 1-9.11 10.4 1.59 1.59 0 0 0-.67 1.34 1.71 1.71 0 0 0 .45 1.17 2.38 2.38 0 0 0 1.4.84 1.64 1.64 0 0 0 .39.06 2.16 2.16 0 0 0 1.12-.34 33.07 33.07 0 0 0 5.31-4.86.13.13 0 0 1 .14 0 .13.13 0 0 1 .08.14 2.63 2.63 0 0 0 .81 1.93 2.7 2.7 0 0 0 2 .81h9.22a2.77 2.77 0 0 0 2.74-2.74.13.13 0 0 1 .08-.14.13.13 0 0 1 .14 0 27 27 0 0 0 4.19 4.08 2.09 2.09 0 0 0 1.59.45 2.28 2.28 0 0 0 1.48-.84 1.77 1.77 0 0 0 .48-1.43 1.82 1.82 0 0 0-.75-1.31 29 29 0 0 1-8.23-9.57zm-11.06 6.23a.5.5 0 0 1-.4-.8 24.12 24.12 0 0 0 3.55-5.64h1.55a.5.5 0 0 1 .39.19l4.24 5.37a.5.5 0 0 1-.39.81z"/><path class="cls-1" d="M221.2 275a1.59 1.59 0 0 0-1.29-.22q-.56.11-6.32 1.51a.34.34 0 0 1-.34-.08.4.4 0 0 1-.17-.31v-9.67a.49.49 0 0 1 .56-.56h5.25a1.81 1.81 0 0 0 1.29-.53 1.82 1.82 0 0 0 0-2.63 1.81 1.81 0 0 0-1.29-.53h-5.25a.49.49 0 0 1-.56-.56v-6.71a.49.49 0 0 1 .56-.56h.84a4.87 4.87 0 0 0 4.86-4.86v-7.77a4.87 4.87 0 0 0-4.86-4.86h-7.6a4.87 4.87 0 0 0-4.86 4.86v7.77a4.87 4.87 0 0 0 4.86 4.86h2a.49.49 0 0 1 .56.56v22a.62.62 0 0 1-.56.67l-2.79.67a.34.34 0 0 1-.34-.08.45.45 0 0 1-.17-.36v-16.46a1.81 1.81 0 0 0-1.79-1.79 1.63 1.63 0 0 0-1.23.53 1.77 1.77 0 0 0-.5 1.26v17.55a.31.31 0 0 1-.28.34l-.5.11a1.86 1.86 0 0 0-1.28.85 1.88 1.88 0 0 0-.34 1.06 1.84 1.84 0 0 0 .06.45 1.9 1.9 0 0 0 .87 1.29 1.74 1.74 0 0 0 1.48.22q10.84-2.68 18.28-4.7a2.05 2.05 0 0 0 1.2-.87 2 2 0 0 0 .31-1.43 1.39 1.39 0 0 0-.66-1.02zm-14.52-25a.71.71 0 0 1-.71-.71v-8.19a.71.71 0 0 1 .71-.71h8.16a.71.71 0 0 1 .71.71v8.16a.71.71 0 0 1-.71.71h-8.16z"/><path class="cls-2" d="M104.93 252.3a1.64 1.64 0 0 0-.2-1.15 1.69 1.69 0 0 0-.92-.75l-.67-.28a1.91 1.91 0 0 0-1.29-.11H91.63a1.88 1.88 0 0 0-1.37.59 1.91 1.91 0 0 0-.59 1.4 1.82 1.82 0 0 0 .59 1.37 1.92 1.92 0 0 0 1.37.56h8.27a.45.45 0 0 1 .36.17.42.42 0 0 1 .08.39 57.08 57.08 0 0 1-4.25 13.19 35.69 35.69 0 0 1-6.48 9.73 2 2 0 0 0 .06 3 2.34 2.34 0 0 0 1.54.73 1.93 1.93 0 0 0 1.54-.61 37.19 37.19 0 0 0 5.17-7.13 53.17 53.17 0 0 0 4.16-9.53 78.81 78.81 0 0 0 2.85-11.57zM139.76 276.89q-5-4.86-8.27-14.31a.79.79 0 0 1 .22-.89q3.74-3.58 7.43-7.77a1.8 1.8 0 0 0 .53-1.51 1.94 1.94 0 0 0-.78-1.43 2.06 2.06 0 0 0-1.57-.42 2 2 0 0 0-1.37.78 72.89 72.89 0 0 1-5.42 6.37.25.25 0 0 1-.28.06.33.33 0 0 1-.22-.22 70.19 70.19 0 0 1-1.57-7.38 1.9 1.9 0 0 0-.78-1.29 2 2 0 0 0-1.12-.34h-.34a2 2 0 0 0-1.23.78 1.78 1.78 0 0 0-.39 1.12v.34q3.47 20.91 12 29.68a2 2 0 0 0 1.4.56h.22a2.46 2.46 0 0 0 1.62-.89 2.37 2.37 0 0 0 .56-1.57 2.4 2.4 0 0 0-.64-1.67z"/><path class="cls-2" d="M129.08 237.77H98.62a2 2 0 0 0 0 3.91h25.32a.17.17 0 0 1 .2.14.16.16 0 0 1-.08.2c-2.16 3-10.29 5.53-10.84 6.09a2.74 2.74 0 0 0-.84 2v3.3a.49.49 0 0 1-.56.56h-4.75a1.79 1.79 0 0 0 0 3.58h4.75a.49.49 0 0 1 .56.56v4.42a.49.49 0 0 1-.56.56h-5.93a1.73 1.73 0 1 0 0 3.47h5.93a.49.49 0 0 1 .56.56v4.64a.49.49 0 0 1-.56.56h-9.12a1.79 1.79 0 0 0 0 3.58h9.11a.49.49 0 0 1 .56.56v5.25a1.23 1.23 0 0 1-.31 1 2.12 2.12 0 0 1-1.15.31q-1.17.06-3 .06h-3.52a1.19 1.19 0 0 0-1.15.56 1.37 1.37 0 0 0-.14 1.34 3.64 3.64 0 0 0 1.17 1.48 2.74 2.74 0 0 0 1.73.54q5.92 0 8-.73a3.69 3.69 0 0 0 2-1.57 6.25 6.25 0 0 0 .56-3v-5.31a.49.49 0 0 1 .56-.56h9.73a1.79 1.79 0 0 0 0-3.58h-9.73a.49.49 0 0 1-.56-.56v-4.64a.49.49 0 0 1 .56-.56h6.48a1.73 1.73 0 1 0 0-3.47h-6.48a.49.49 0 0 1-.56-.56v-4.42a.49.49 0 0 1 .56-.56h5.59a1.79 1.79 0 0 0 0-3.58h-5.59a.49.49 0 0 1-.56-.56v-2.24a.9.9 0 0 1 .5-.84 56.18 56.18 0 0 0 14.48-9.45c.13-.11.52-.53.62-.63 1.62-1.53 2.76-2.47 5.58-2.47 0 .08-8.51.02-8.66.06zM53.39 275.44a2.33 2.33 0 0 0-1.45-.61 2.36 2.36 0 0 0-1.51.39 1.36 1.36 0 0 0-.67 1.09 1.46 1.46 0 0 0 .45 1.2 42.91 42.91 0 0 1 4.58 4.86 2.23 2.23 0 0 0 1.37.81 1.91 1.91 0 0 0 1.48-.34 1.82 1.82 0 0 0 .78-1.29 1.77 1.77 0 0 0-.39-1.43 49.75 49.75 0 0 0-4.64-4.68zM44.47 236.4a1.76 1.76 0 0 0-1.15-1 2 2 0 0 0-1.62.11 2.28 2.28 0 0 0-1.12 1.17 63.62 63.62 0 0 1-11.74 19.12 3 3 0 0 0-.78 1.79v.28a3.17 3.17 0 0 0 .45 1.65 1.69 1.69 0 0 0 1.29.87 1.65 1.65 0 0 0 1.45-.5 60 60 0 0 0 3.8-4.81.16.16 0 0 1 .2-.08.14.14 0 0 1 .14.14v29.57a2 2 0 1 0 4 0v-35.77a2.15 2.15 0 0 1 .28-1.06 94.64 94.64 0 0 0 4.86-9.95 1.92 1.92 0 0 0-.06-1.53z"/><path class="cls-2" d="M80.33 271.3a1.67 1.67 0 0 0-1.23-.5h-5.7a.49.49 0 0 1-.56-.56v-2.74a.49.49 0 0 1 .56-.56l2.12-.06a.56.56 0 0 1 .56.22l.92.9a2 2 0 0 0 1.26.67 2.13 2.13 0 0 0 1.43-.28 1.44 1.44 0 0 0 .7-1.09 1.39 1.39 0 0 0-.42-1.2 46.49 46.49 0 0 0-5.9-5.1.14.14 0 0 1 0-.17.16.16 0 0 1 .11-.11 3.82 3.82 0 0 0 3.8-3.8v-6.54a4.87 4.87 0 0 0-4.86-4.86h-8.39a.49.49 0 0 1-.56-.56v-2.16a.49.49 0 0 1 .56-.56h13.92a1.62 1.62 0 0 0 0-3.24H64.56a.37.37 0 0 1-.39-.45v-1.45a2.07 2.07 0 0 0-4.14 0v1.45a.37.37 0 0 1-.39.45H46a1.62 1.62 0 0 0 0 3.24h13.48a.49.49 0 0 1 .56.56v2.12a.49.49 0 0 1-.56.56h-7.94a4.87 4.87 0 0 0-4.86 4.86v5.48a4.87 4.87 0 0 0 4.86 4.86h7.94a.49.49 0 0 1 .56.56v2.35a.55.55 0 0 1-.56.61q-7.6.11-13.86.11a1.4 1.4 0 0 0-1.12.53 1.59 1.59 0 0 0-.39 1.2 2.08 2.08 0 0 0 .64 1.23 1.65 1.65 0 0 0 1.31.45q5.76-.11 22.08-.61a.59.59 0 0 1 .39.14.51.51 0 0 1 .17.42v2.57a.49.49 0 0 1-.56.56H44.5a1.73 1.73 0 1 0 0 3.47h23.64a.49.49 0 0 1 .56.56v7.49a1 1 0 0 1-.22.75 1.56 1.56 0 0 1-1 .2 18.33 18.33 0 0 1-2.52.11q-1.17 0-2.85-.06a1.1 1.1 0 0 0-1 .56 1.31 1.31 0 0 0-.11 1.17 2.81 2.81 0 0 0 1 1.31 2.41 2.41 0 0 0 1.48.53 28 28 0 0 0 7-.56 3.11 3.11 0 0 0 1.85-1.33 5.47 5.47 0 0 0 .5-2.63v-7.55a.49.49 0 0 1 .56-.56h5.7a1.74 1.74 0 0 0 1.24-2.96zM59.88 256a.46.46 0 0 1-.46.46h-8.57a.46.46 0 0 1-.46-.46v-1.49a.46.46 0 0 1 .46-.46h8.57a.46.46 0 0 1 .46.46V256zm0-5a.46.46 0 0 1-.46.46h-8.57a.46.46 0 0 1-.46-.46v-1.5a.46.46 0 0 1 .46-.46h8.57a.46.46 0 0 1 .46.46v1.5zm4.3-1.5a.46.46 0 0 1 .46-.46h8.57a.46.46 0 0 1 .46.46v1.5a.46.46 0 0 1-.46.46h-8.57a.46.46 0 0 1-.46-.46v-1.5zm-.81 14.8v-3.58l5.73.09 2.9 3.31zm1.27-7.84a.46.46 0 0 1-.46-.46v-1.49a.46.46 0 0 1 .46-.46h8.57a.46.46 0 0 1 .46.46V256a.46.46 0 0 1-.46.46h-8.57z"/><path class="cls-3" d="M419.1 272.09a1.37 1.37 0 0 0-1.29 0 1.18 1.18 0 0 0-.67 1 26.38 26.38 0 0 1-.92 6.74 2.4 2.4 0 0 1-2.43 1.65h-9.17a3.54 3.54 0 0 1-2.6-.67 4.94 4.94 0 0 1-.59-3v-40.55a2.05 2.05 0 0 0-.61-1.51 2.09 2.09 0 0 0-3 0 2.05 2.05 0 0 0-.61 1.51v40.47q0 4.47 1.43 6t5.56 1.57h9.8q3.63 0 5-2.24 1.9-3 1.9-8.38a2.57 2.57 0 0 0-.45-1.45 3.09 3.09 0 0 0-1.35-1.14zM449.46 265.55a2.83 2.83 0 0 0-.56-1.68q-4.08-5.2-6.2-7.71a1.41 1.41 0 0 1-.34-1v-3.86a.49.49 0 0 1 .56-.56 6.3 6.3 0 0 0 4-1.47 10.15 10.15 0 0 1 2.38-1.83 6.87 6.87 0 0 1 3.2-.65h-9.61a.49.49 0 0 1-.56-.56v-9.67a1.9 1.9 0 0 0-.61-1.43 2 2 0 0 0-1.45-.59 2 2 0 0 0-2 2v9.67a.49.49 0 0 1-.56.56h-6a1.94 1.94 0 0 0-1.43.59 2 2 0 0 0 0 2.79 1.94 1.94 0 0 0 1.43.59h5.48a.38.38 0 0 1 .34.17.37.37 0 0 1 .06.34 70 70 0 0 1-3.38 10.37 57.37 57.37 0 0 1-4.5 8.92 3.22 3.22 0 0 0-.61 1.84 3.62 3.62 0 0 0 .5 1.79 1.36 1.36 0 0 0 1.12.73 1.14 1.14 0 0 0 1.12-.56 63.13 63.13 0 0 0 6.26-14.09s0-.06.08-.06.08 0 .08.06v24.43a2 2 0 0 0 .59 1.48 1.94 1.94 0 0 0 1.43.59 2 2 0 0 0 1.45-.59 2 2 0 0 0 .61-1.48V261.3a.18.18 0 0 1 .11-.17.11.11 0 0 1 .17.06q2.29 3.3 3.86 5.93a1.38 1.38 0 0 0 1.15.73 1.28 1.28 0 0 0 1.2-.56 2.6 2.6 0 0 0 .63-1.74zM384.16 250.06h1.48a5.59 5.59 0 0 0 3.71-1.45 11.48 11.48 0 0 1 2.06-1.65 6.59 6.59 0 0 1 3.51-.83h-10.77a.49.49 0 0 1-.56-.56v-8.87a2 2 0 0 0-.61-1.45 2.09 2.09 0 0 0-3 0 2 2 0 0 0-.61 1.45v8.83a.49.49 0 0 1-.56.56h-6.54a1.88 1.88 0 0 0-1.37.59 2 2 0 0 0 0 2.79 1.88 1.88 0 0 0 1.37.59h6.54a.49.49 0 0 1 .56.56v11.18a.61.61 0 0 1-.5.67q-3.91 1-6.76 1.68a2.08 2.08 0 0 0-1.34 1 1.85 1.85 0 0 0-.17 1.59 2 2 0 0 0 1 1.29 2.27 2.27 0 0 0 1.7.22l5.53-1.57a.34.34 0 0 1 .34.08.4.4 0 0 1 .17.31v14.81a1.1 1.1 0 0 1-.25.84 1.52 1.52 0 0 1-.87.28h-3.8a1.26 1.26 0 0 0-1.12.59 1.37 1.37 0 0 0-.17 1.26 3.22 3.22 0 0 0 1.06 1.45 2.37 2.37 0 0 0 1.57.56 17.07 17.07 0 0 0 5.65-.73 3.34 3.34 0 0 0 1.65-1.54 6.48 6.48 0 0 0 .48-2.77v-15.94a.7.7 0 0 1 .56-.73l6.09-1.73a2.11 2.11 0 0 0 1.29-.92 2.22 2.22 0 0 0 .34-1.54 1.68 1.68 0 0 0-.78-1.17 1.58 1.58 0 0 0-1.4-.22l-5.53 1.51a.47.47 0 0 1-.39-.06.38.38 0 0 1-.17-.34v-10.06a.49.49 0 0 1 .61-.56z"/><path class="cls-3" d="M479.76 282.37a25.19 25.19 0 0 1-8.55-8.11.52.52 0 0 1 .17-.78q3.91-2.52 7.77-5.42a2 2 0 0 0 .2-2.88 1.89 1.89 0 0 0-1.45-.64 2.21 2.21 0 0 0-1.54.61 75.64 75.64 0 0 1-6.65 5.42.43.43 0 0 1-.73-.17 42.75 42.75 0 0 1-3.07-8.16.42.42 0 0 1 .08-.39.4.4 0 0 1 .31-.17h6.6a4.87 4.87 0 0 0 4.86-4.86v-14.36a7.64 7.64 0 0 1 .21-2.27c1.74-1.64 3-2.65 6-2.65h-12.4v.06h-13.78a4.87 4.87 0 0 0-4.86 4.86v37.9a.53.53 0 0 1-.45.56l-2.07.39a1.88 1.88 0 0 0-1.29.89 1.64 1.64 0 0 0-.34 1 1.84 1.84 0 0 0 .11.56 2.14 2.14 0 0 0 1 1.31 2.12 2.12 0 0 0 1.68.25q12-2.57 14.76-3.24a2 2 0 0 0 1-.45 2.07 2.07 0 0 0 .59-.84 2.1 2.1 0 0 0 .14-1 1.65 1.65 0 0 0-2-1.51q-1.23.22-4.14.81t-4.42.87a.34.34 0 0 1-.34-.08.45.45 0 0 1-.17-.36v-17.27a.49.49 0 0 1 .56-.56h3.91a.62.62 0 0 1 .67.56q4.36 17 14.92 23.64a2.25 2.25 0 0 0 1.17.34 1.5 1.5 0 0 0 .56-.11 2.74 2.74 0 0 0 1.57-1 1.78 1.78 0 0 0 .39-1.12 1.64 1.64 0 0 0-.06-.39 1.86 1.86 0 0 0-.92-1.24zm-22.25-34.26v-5.91a.69.69 0 0 1 .69-.69h14.39a.68.68 0 0 1 .43.16l.06.17h.07a.67.67 0 0 1 .13.38v5.91a.69.69 0 0 1-.69.69h-14.4a.69.69 0 0 1-.68-.71zm.15 9.64v-5.91a.69.69 0 0 1 .69-.69h14.39a.68.68 0 0 1 .43.16l.06.17h.07a.67.67 0 0 1 .13.38v5.91a.69.69 0 0 1-.69.69h-14.39a.69.69 0 0 1-.69-.71z"/><path class="cls-4" d="M154.43 252.86c2.63 3.32 13.19 16.27 21.91 21.71a.81.81 0 0 0 .78 0l1.62-.79a.6.6 0 0 0 .08-1c-3.35-2.31-15.78-11.27-22.46-21.39a.59.59 0 0 0-.75-.21l-.9.44a.81.81 0 0 0-.28 1.24z"/><path class="cls-5" d="M177.42 252.56c-2.29 2.85-12.67 15.52-21.4 21.3a.81.81 0 0 1-.92 0l-.51-.37a.83.83 0 0 1 0-1.33c3.16-2.48 14.13-11.46 20.51-21.48a.8.8 0 0 1 1.23-.16l1 1a.8.8 0 0 1 .09 1.04z"/><path class="cls-6" d="M325.65 252.86c2.63 3.32 13.19 16.27 21.91 21.71a.81.81 0 0 0 .78 0l1.62-.79a.6.6 0 0 0 .08-1c-3.35-2.31-15.78-11.27-22.46-21.39a.59.59 0 0 0-.75-.21l-.9.44a.81.81 0 0 0-.28 1.24z"/><path class="cls-5" d="M348.63 252.56c-2.29 2.85-12.67 15.52-21.4 21.3a.81.81 0 0 1-.92 0l-.51-.37a.83.83 0 0 1 0-1.33c3.16-2.48 14.13-11.46 20.51-21.48a.8.8 0 0 1 1.23-.16l1 1a.8.8 0 0 1 .09 1.04z"/></svg>