<svg id="Layer_1" data-name="Layer 1" xmlns="http://www.w3.org/2000/svg" viewBox="0 0 512 512"><defs><style>.cls-1{fill:#231815;}</style></defs><title>social</title><path class="cls-1" d="M257.43,60c-108.26,0-196,87.74-196,196s87.74,196,196,196,196-87.74,196-196S365.69,60,257.43,60Zm6.89,270.42S201,353.31,156.9,323.07c0,0,53.9-8.19,59.64-20.44,0,0-28.63-3.29-36-27.79L196.1,274s-26.95-2.45-30.24-40.88l18,2.45c0.08,0.08-28.56-8-13-51.37,0,0,31.08,35.14,82.53,40.88,0,0-2.45-29.4,23.66-45.78,0,0,26.95-18,47.39,8.19,0,0,19.6-4.06,26.95-9a91.12,91.12,0,0,1-15.54,20.67l22.05-4.36-20.44,22S345.63,291.22,264.32,330.42Z"/></svg>