<svg id="Layer_1" data-name="Layer 1" xmlns="http://www.w3.org/2000/svg" viewBox="0 0 512 512"><defs><style>.cls-1{fill:#517862;}</style></defs><title>social</title><path class="cls-1" d="M253.68,219.79a4.46,4.46,0,0,0,3.52-1.3,4.92,4.92,0,0,0,1.3-3.67V183.27a3.93,3.93,0,0,0-1.3-3.06,4.93,4.93,0,0,0-3.45-1.15,4.6,4.6,0,0,0-3.22,1.15,3.87,3.87,0,0,0-1.22,3.06v31.54a5.42,5.42,0,0,0,1.15,3.67A4.26,4.26,0,0,0,253.68,219.79Z"/><path class="cls-1" d="M237.22,323.15h-0.08a13.07,13.07,0,0,1-3.37,3.14,5.69,5.69,0,0,1-3,1.23,2.38,2.38,0,0,1-2.14-.92,5,5,0,0,1-.69-3V279.2h-10.8v48.46c0,3.45.61,6,1.91,7.73a6.72,6.72,0,0,0,5.67,2.6,12.77,12.77,0,0,0,6.28-1.84,24.68,24.68,0,0,0,6.2-5.36v6.43H248v-58h-10.8v43.87Z"/><polygon class="cls-1" points="217.31 258.53 180.1 258.53 180.1 269.93 192.66 269.93 192.66 337.08 204.75 337.08 204.75 269.93 217.31 269.93 217.31 258.53"/><path class="cls-1" d="M257.35,60c-108.26,0-196,87.82-195.92,196.08s87.82,196,196.08,195.92,195.92-87.82,195.92-196.08S365.61,60,257.35,60Zm21.28,110.4h10.8v44.41a5,5,0,0,0,.69,3,2.63,2.63,0,0,0,2.22.92,5.69,5.69,0,0,0,3-1.23,15.81,15.81,0,0,0,3.29-3.14V170.48h10.8v58h-10.8V222a24.68,24.68,0,0,1-6.2,5.36,12.77,12.77,0,0,1-6.28,1.84,6.72,6.72,0,0,1-5.67-2.6c-1.22-1.68-1.84-4.29-1.84-7.73V170.4Zm-24.35-1.45a14.83,14.83,0,0,1,10.95,4.21,14.41,14.41,0,0,1,4.29,10.8v29.94c0,5-1.45,8.88-4.21,11.71s-6.66,4.21-11.56,4.21c-4.75,0-8.5-1.45-11.33-4.36s-4.21-6.81-4.21-11.71V183.65a13.8,13.8,0,0,1,4.36-10.72C245.49,170.25,249.39,168.95,254.29,168.95Zm-43.95-19.14,7.81,31.39h0.77l7.58-31.39h12.33l-14.16,45.94v32.62h-12.1V197.2l-14.47-47.39h12.25Zm137,186.43a25.49,25.49,0,0,1-25.65,25.34c-20.21.92-40.88,1.22-61.94,1.22s-41.73-.38-61.94-1.22a25.49,25.49,0,0,1-25.65-25.34c-0.92-11.18-1.22-22.2-1.22-33.3s0.38-22.13,1.22-33.23a25.49,25.49,0,0,1,25.65-25.34q28.83-1.15,58.8-1.15h6.28c20,0,39.58.31,58.8,1.15a25.49,25.49,0,0,1,25.65,25.34c0.92,11.1,1.22,22.13,1.22,33.23S348.16,325.14,347.31,336.24Z"/><path class="cls-1" d="M278.87,278.43a10.19,10.19,0,0,0-5,1.38,15.94,15.94,0,0,0-4.59,4.06V258.6H258.42v78.55H269.3v-4.44a13.63,13.63,0,0,0,4.59,3.9,12.36,12.36,0,0,0,5.67,1.3c3.22,0,5.67-1.07,7.35-3.29s2.53-5.36,2.53-9.49V293c0-4.75-.92-8.35-2.68-10.8A9.1,9.1,0,0,0,278.87,278.43Zm-0.46,45.1h-0.08a6.62,6.62,0,0,1-.92,4,3.36,3.36,0,0,1-2.91,1.23,6.18,6.18,0,0,1-2.6-.61,7.52,7.52,0,0,1-2.53-2.07V289.92a7.46,7.46,0,0,1,2.22-1.76,5.16,5.16,0,0,1,2.3-.61,4.15,4.15,0,0,1,3.37,1.53,7.31,7.31,0,0,1,1.15,4.44v30Z"/><path class="cls-1" d="M313.93,277.74a15.75,15.75,0,0,0-11.79,4.75c-3.06,3.14-4.59,7.27-4.59,12.33v26c0,5.59,1.38,10,4.13,13.17s6.58,4.75,11.41,4.75c5.36,0,9.42-1.53,12.1-4.52s4.06-7.5,4.06-13.4v-4.36h-11.1v4.06c0,3.45-.38,5.59-1.07,6.58a4.33,4.33,0,0,1-3.75,1.53,3.9,3.9,0,0,1-3.6-1.76c-0.77-1.15-1.07-3.29-1.07-6.35V309.59h20.6V294.74c0-5.51-1.3-9.72-4-12.63S318.83,277.74,313.93,277.74Zm4.29,22.82h-9.49v-5.9h-0.08c0-2.45.38-4.13,1.15-5.21a4.16,4.16,0,0,1,3.67-1.53,4.21,4.21,0,0,1,3.6,1.53c0.77,1.07,1.15,2.76,1.15,5.21v5.9Z"/></svg>
